<?xml version="1.0" standalone="no"?>
<!DOCTYPE svg PUBLIC "-//W3C//DTD SVG 20010904//EN"
 "http://www.w3.org/TR/2001/REC-SVG-20010904/DTD/svg10.dtd">
<svg version="1.0" xmlns="http://www.w3.org/2000/svg"
 width="224.565361pt" height="225.000000pt" viewBox="0 0 224.565361 225.000000"
 preserveAspectRatio="xMidYMid meet">
<metadata>
Created by potrace 1.12, written by Peter Selinger 2001-2015
</metadata>
<g transform="translate(0.300639,225.000000) scale(0.100000,-0.100000)"
fill="#000000" stroke="none">
<path d="M4 2149 c19 -303 124 -540 330 -745 118 -118 249 -202 426 -271 24
-10 24 -10 -15 -23 -137 -44 -323 -167 -437 -288 -187 -199 -285 -433 -304
-721 l-7 -101 1121 0 1122 0 0 89 c0 111 -22 226 -65 347 -109 307 -352 554
-658 668 l-57 22 72 28 c258 100 467 294 594 551 69 139 104 272 111 421 l6
111 -138 6 c-76 4 -581 7 -1123 7 l-985 0 7 -101z m1647 -45 c-142 -79 -299
-222 -381 -346 l-44 -68 -492 0 -492 0 -15 23 c-16 24 -59 124 -71 165 l-7 22
613 0 614 0 29 30 29 30 -651 0 -651 0 -6 23 c-3 12 -9 52 -12 90 l-7 67 804
0 804 0 -64 -36z m489 12 c0 -13 -7 -60 -15 -103 -42 -223 -139 -400 -306
-558 -88 -84 -162 -134 -272 -185 -81 -38 -219 -80 -264 -80 -13 0 -23 -4 -23
-10 0 -10 -72 -14 -82 -5 -7 7 9 129 26 196 74 289 270 532 533 663 124 62
268 103 361 105 38 1 42 -1 42 -23z m-956 -508 c-10 -18 -29 -67 -45 -108
l-27 -75 -324 -3 -325 -2 -49 47 c-27 27 -69 73 -93 103 l-44 55 459 5 c253 3
460 6 462 8 1 1 -5 -13 -14 -30z m-90 -270 c-4 -18 -10 -60 -13 -93 l-6 -60
-56 1 c-110 2 -271 53 -405 130 l-69 39 275 5 c151 3 276 7 278 8 2 1 0 -13
-4 -30z m301 -303 c97 -28 211 -78 272 -119 l38 -26 -293 0 -292 0 0 91 0 92
93 -6 c53 -3 130 -17 182 -32z m461 -277 c38 -40 80 -88 92 -105 l23 -33 -425
0 -426 0 0 105 0 105 334 0 333 0 69 -72z m190 -273 c19 -41 37 -88 40 -105
l7 -30 -487 0 -486 0 0 105 0 105 446 0 445 0 35 -75z m83 -270 c6 -42 11 -82
11 -90 0 -13 -70 -15 -510 -15 l-510 0 0 90 0 90 499 0 499 0 11 -75z"/>
</g>
</svg>
